<svg xmlns="http://www.w3.org/2000/svg" width="34" height="34" fill="none" viewBox="0 0 34 34"><path fill="#00ae6c" d="m23.426 22.59 3.005-3.004-4.508-4.508 5.01-5.009-3.006-3.005-5.009 5.009-4.508-4.508-3.005 3.005zm-2.003 2.004L9.401 12.574 5.395 16.58l12.02 12.02zM18.918 8.066l4.007-4.007a1.417 1.417 0 0 1 2.003 0l5.01 5.008c.553.554.553 1.45 0 2.004l-4.008 4.007 3.506 3.506c.554.553.554 1.45 0 2.003l-11.019 11.02a1.417 1.417 0 0 1-2.003 0L2.39 17.582a1.417 1.417 0 0 1 0-2.003l11.019-11.02a1.417 1.417 0 0 1 2.003 0z"/></svg>