<svg xmlns="http://www.w3.org/2000/svg" width="34" height="34" fill="none" viewBox="0 0 34 34"><path fill="#00ae6c" d="M7.09 12.754c.783 0 1.417.634 1.417 1.416a9.87 9.87 0 0 1 6.134 2.125h3.074c1.888 0 3.583.82 4.75 2.124l4.459.001a7.08 7.08 0 0 1 6.398 4.04c-3.35 4.42-8.776 7.294-14.898 7.294-3.954 0-7.296-.855-10.003-2.35a1.41 1.41 0 0 1-1.33.933H2.84a1.417 1.417 0 0 1-1.417-1.417V14.17c0-.782.634-1.416 1.416-1.416zm1.419 4.25-.002 7.113.064.047c2.542 1.786 5.855 2.756 9.853 2.756 4.256 0 8.215-1.637 11.1-4.433l.188-.19-.169-.141a4.24 4.24 0 0 0-2.329-.892l-.29-.01-2.992-.002a6.4 6.4 0 0 1 .159 1.418v1.417H11.34v-2.833l9.619-.002-.049-.11a3.54 3.54 0 0 0-2.963-2.006l-.233-.007h-4.15a7.06 7.06 0 0 0-5.056-2.125m-2.835-1.417H4.257v9.917h1.417zM19.34 5.07l.5.501.501-.501a3.542 3.542 0 0 1 5.01 5.009l-5.51 5.51-5.51-5.51a3.542 3.542 0 1 1 5.009-5.01m-3.006 2.003a.71.71 0 0 0-.083.903l.082.098 3.506 3.506 3.508-3.505a.71.71 0 0 0 .081-.904l-.081-.098a.71.71 0 0 0-.904-.081l-.099.082-2.506 2.505-2.503-2.507-.097-.08a.71.71 0 0 0-.904.081"/></svg>