<svg xmlns="http://www.w3.org/2000/svg" width="34" height="34" fill="none" viewBox="0 0 34 34"><path fill="#00ae6c" d="M24.083 2.833c.782 0 1.417.635 1.417 1.417v5.667h4.25c.782 0 1.416.634 1.416 1.416V25.5c0 .782-.634 1.417-1.416 1.417H25.5v2.833c0 .782-.635 1.417-1.417 1.417H9.916A1.417 1.417 0 0 1 8.5 29.75v-2.833H4.25A1.417 1.417 0 0 1 2.833 25.5V11.333c0-.782.634-1.416 1.417-1.416H8.5V4.25c0-.782.634-1.417 1.416-1.417zm-1.417 21.25H11.333v4.25h11.333zm5.667-11.333H5.666v11.333H8.5v-1.416c0-.783.634-1.417 1.416-1.417h14.167c.782 0 1.417.634 1.417 1.417v1.416h2.833zm-17 1.417V17h-4.25v-2.833zm11.333-8.5H11.333v4.25h11.333z"/></svg>