<svg xmlns="http://www.w3.org/2000/svg" width="34" height="34" fill="none" viewBox="0 0 34 34"><path fill="#00ae6c" d="M.977 9.912A25.4 25.4 0 0 1 17 4.25c6.07 0 11.644 2.12 16.023 5.662l-2.67 3.306A21.16 21.16 0 0 0 17 8.5a21.16 21.16 0 0 0-13.353 4.718zm4.45 5.51A18.34 18.34 0 0 1 17 11.333a18.34 18.34 0 0 1 11.572 4.09l-2.67 3.306A14.1 14.1 0 0 0 17 15.583c-3.373 0-6.47 1.179-8.902 3.146zm4.451 5.511A11.3 11.3 0 0 1 17 18.417c2.698 0 5.175.942 7.121 2.516l-2.67 3.307A7.05 7.05 0 0 0 17 22.667a7.05 7.05 0 0 0-4.451 1.572zm4.451 5.51A4.23 4.23 0 0 1 17 25.5c1.012 0 1.941.354 2.671.944L17 29.75z"/></svg>