<svg xmlns="http://www.w3.org/2000/svg" width="260" height="260" fill="none" viewBox="0 0 260 260"><g clip-path="url(#a)"><rect width="260" height="260" fill="#000" rx="80"/><path fill="#fff" d="M38 129.594q0-19.527 8.564-34.736 8.565-15.397 23.79-23.845 15.417-8.638 34.829-8.638 23.79 0 40.728 12.393 16.938 12.392 22.648 33.797h-35.78q-3.996-8.262-11.419-12.58-7.232-4.32-16.558-4.319-15.035 0-24.36 10.327-9.327 10.327-9.326 27.601t9.325 27.601q9.326 10.327 24.361 10.327 9.326 0 16.558-4.319 7.422-4.318 11.419-12.58h35.78q-5.71 21.405-22.648 33.797-16.938 12.204-40.728 12.204-19.412 0-34.829-8.449-15.225-8.637-23.79-23.845Q38 149.121 38 129.594M251.675 197q-18.841 0-34.638-8.637-15.606-8.637-24.932-24.033-9.135-15.585-9.135-34.924t9.135-34.736q9.326-15.396 24.932-24.033Q232.834 62 251.675 62q18.842 0 34.448 8.637 15.796 8.638 24.742 24.033Q320 110.067 320 129.406q0 19.34-9.135 34.924-9.136 15.396-24.742 24.033T251.675 197m0-29.291q15.987 0 25.503-10.514 9.706-10.515 9.706-27.789 0-17.462-9.706-27.788-9.516-10.515-25.503-10.515-16.176 0-25.883 10.327-9.516 10.327-9.516 27.976 0 17.462 9.516 27.976 9.707 10.327 25.883 10.327"/></g><defs><clipPath id="a"><rect width="260" height="260" fill="#fff" rx="80"/></clipPath></defs></svg>