<svg xmlns="http://www.w3.org/2000/svg" width="169" height="24" fill="none" viewBox="0 0 169 24"><path fill="#000" d="M0 12.016q0-3.328 1.44-5.92 1.44-2.625 4-4.064Q8.032.56 11.296.56q4 0 6.848 2.112t3.808 5.76h-6.016q-.672-1.408-1.92-2.144-1.216-.735-2.784-.736-2.527 0-4.096 1.76t-1.568 4.704 1.568 4.704 4.096 1.76q1.568 0 2.784-.736 1.248-.735 1.92-2.144h6.016q-.96 3.648-3.808 5.76-2.848 2.08-6.848 2.08-3.264 0-5.856-1.44a10.46 10.46 0 0 1-4-4.064Q0 15.344 0 12.016m35.927 11.488q-3.168 0-5.824-1.472a11.2 11.2 0 0 1-4.192-4.096q-1.536-2.656-1.536-5.952t1.536-5.92a11.2 11.2 0 0 1 4.192-4.096Q32.759.496 35.927.496t5.792 1.472a10.66 10.66 0 0 1 4.16 4.096q1.536 2.625 1.536 5.92t-1.536 5.952a10.96 10.96 0 0 1-4.16 4.096q-2.624 1.472-5.792 1.472m0-4.992q2.688 0 4.288-1.792 1.632-1.792 1.632-4.736 0-2.976-1.632-4.736-1.6-1.792-4.288-1.792-2.72 0-4.352 1.76-1.6 1.76-1.6 4.768 0 2.976 1.6 4.768 1.632 1.76 4.352 1.76M81.371.816 75.515 23.28h-6.624L65.307 8.496 61.595 23.28h-6.624L49.275.816h5.856l3.232 16.352 4-16.352h6.016l3.84 16.352L75.483.816zM94.74 23.504q-3.168 0-5.824-1.472a11.2 11.2 0 0 1-4.192-4.096q-1.537-2.656-1.537-5.952t1.537-5.92a11.2 11.2 0 0 1 4.191-4.096Q91.572.496 94.74.496t5.792 1.472a10.66 10.66 0 0 1 4.159 4.096q1.536 2.625 1.537 5.92t-1.537 5.952a10.96 10.96 0 0 1-4.159 4.096q-2.624 1.472-5.792 1.472m0-4.992q2.686 0 4.288-1.792 1.631-1.792 1.632-4.736 0-2.976-1.632-4.736-1.601-1.792-4.288-1.792-2.72 0-4.352 1.76-1.6 1.76-1.6 4.768 0 2.976 1.6 4.768 1.63 1.76 4.352 1.76m25.988 4.768-4.672-8.48h-1.312v8.48h-5.472V.816h9.184q2.655 0 4.512.928 1.887.928 2.816 2.56.928 1.6.928 3.584 0 2.24-1.28 4-1.248 1.76-3.712 2.496l5.184 8.896zm-5.984-12.352h3.392q1.503 0 2.24-.736.768-.735.768-2.08 0-1.28-.768-2.016-.737-.735-2.24-.736h-3.392zm28.427 12.352-7.552-9.92v9.92h-5.472V.816h5.472v9.856l7.488-9.856h6.432l-8.704 11.008 9.024 11.456zm17.416.224q-2.463 0-4.416-.8-1.951-.8-3.136-2.368-1.152-1.568-1.216-3.776h5.824q.129 1.248.864 1.92.736.64 1.92.64 1.217 0 1.92-.544.704-.576.704-1.568 0-.832-.576-1.376-.543-.544-1.376-.896-.8-.352-2.304-.8-2.175-.672-3.552-1.344-1.375-.672-2.368-1.984t-.992-3.424q0-3.136 2.272-4.896 2.272-1.792 5.92-1.792 3.713 0 5.984 1.792 2.273 1.76 2.432 4.928h-5.92q-.063-1.087-.8-1.696-.735-.64-1.888-.64-.991 0-1.6.544-.608.512-.608 1.504 0 1.087 1.024 1.696 1.025.608 3.2 1.312 2.176.736 3.52 1.408a6.7 6.7 0 0 1 2.368 1.952q.993 1.28.992 3.296 0 1.92-.992 3.488-.96 1.568-2.816 2.496t-4.384.928"/></svg>