<svg xmlns="http://www.w3.org/2000/svg" width="119" height="16" fill="none" viewBox="0 0 119 16"><path fill="#fff" d="M.814 8.011q0-2.314 1.002-4.117a7.1 7.1 0 0 1 2.781-2.826Q6.4.045 8.67.045q2.782 0 4.762 1.468 1.98 1.47 2.648 4.006h-4.183q-.468-.98-1.336-1.491-.845-.512-1.936-.512-1.758 0-2.848 1.224t-1.09 3.27 1.09 3.271 2.848 1.224q1.091 0 1.936-.512.869-.511 1.335-1.49h4.184q-.668 2.536-2.648 4.005-1.98 1.447-4.762 1.447-2.269 0-4.073-1.002a7.3 7.3 0 0 1-2.781-2.826Q.814 10.325.814 8.011M25.799 16q-2.205 0-4.05-1.024a7.8 7.8 0 0 1-2.916-2.848q-1.068-1.846-1.068-4.14 0-2.291 1.068-4.116a7.8 7.8 0 0 1 2.915-2.848Q23.596 0 25.798 0q2.204 0 4.028 1.024a7.4 7.4 0 0 1 2.893 2.848q1.068 1.825 1.068 4.117t-1.068 4.139a7.6 7.6 0 0 1-2.893 2.848Q28.001 16 25.8 16m0-3.472q1.87 0 2.981-1.246 1.135-1.245 1.135-3.293 0-2.07-1.135-3.294Q27.67 3.45 25.798 3.45q-1.891 0-3.026 1.224-1.113 1.224-1.113 3.316 0 2.07 1.113 3.316 1.135 1.224 3.027 1.223M57.4.223l-4.072 15.621h-4.606L46.23 5.564l-2.582 10.28h-4.606L35.081.223h4.072l2.248 11.37L44.182.224h4.184l2.67 11.37 2.27-11.37zM66.697 16q-2.202 0-4.05-1.024a7.8 7.8 0 0 1-2.915-2.848q-1.068-1.846-1.068-4.14 0-2.291 1.068-4.116a7.8 7.8 0 0 1 2.915-2.848Q64.495 0 66.697 0q2.204 0 4.028 1.024a7.4 7.4 0 0 1 2.893 2.848q1.068 1.825 1.068 4.117t-1.068 4.139a7.6 7.6 0 0 1-2.893 2.848Q68.901 16 66.697 16m0-3.472q1.869 0 2.982-1.246 1.135-1.245 1.135-3.293 0-2.07-1.135-3.294-1.113-1.246-2.982-1.246-1.891 0-3.026 1.224-1.113 1.224-1.113 3.316 0 2.07 1.113 3.316 1.134 1.224 3.026 1.223m18.073 3.316-3.25-5.897h-.912v5.897h-3.805V.223h6.387q1.846 0 3.138.645 1.313.646 1.958 1.78.645 1.113.645 2.492 0 1.558-.89 2.782-.869 1.224-2.581 1.736l3.605 6.186zm-4.162-8.59h2.36q1.046 0 1.557-.511.534-.513.534-1.447 0-.89-.534-1.402-.511-.511-1.558-.512h-2.359zm19.769 8.59-5.252-6.898v6.898H91.32V.223h3.805v6.853l5.207-6.853h4.473l-6.053 7.655 6.276 7.966zm12.111.156q-1.713 0-3.07-.556-1.358-.556-2.181-1.647-.801-1.09-.846-2.626h4.05q.09.869.601 1.335.512.445 1.335.445.846 0 1.335-.378.49-.4.49-1.09a1.26 1.26 0 0 0-.401-.957 3 3 0 0 0-.956-.623q-.556-.246-1.603-.557-1.513-.467-2.47-.934a4.6 4.6 0 0 1-1.647-1.38q-.689-.912-.689-2.381 0-2.181 1.58-3.405Q109.596.001 112.132 0q2.581 0 4.162 1.246 1.58 1.224 1.691 3.427h-4.117q-.045-.756-.556-1.18-.512-.444-1.313-.444-.69 0-1.113.378-.423.356-.423 1.046 0 .756.713 1.18.711.421 2.225.912 1.514.51 2.448.979a4.64 4.64 0 0 1 1.646 1.357q.69.891.69 2.292 0 1.335-.69 2.426-.667 1.09-1.958 1.736t-3.049.645"/></svg>