<svg xmlns="http://www.w3.org/2000/svg" width="62" height="62" fill="none" viewBox="0 0 62 62"><rect width="62" height="62" fill="#00ae6c" rx="20"/><path fill="#fff" d="M43.298 19.57a5.13 5.13 0 0 0-6.547-.561 14.3 14.3 0 0 1 7.285 6.814 5.115 5.115 0 0 0-.738-6.253m-17.812-.365a5.12 5.12 0 0 0-6.787.366 5.1 5.1 0 0 0-.337 6.804 14.3 14.3 0 0 1 7.124-7.17m5.845.506a12.4 12.4 0 0 0-6.895 2.11 12.46 12.46 0 0 0-4.57 5.589 12.5 12.5 0 0 0 2.68 13.571l-2.266 2.271a.898.898 0 0 0 .991 1.454.9.9 0 0 0 .288-.198l2.363-2.369a12.33 12.33 0 0 0 14.996-.071l2.434 2.44a.887.887 0 0 0 1.466-.642.9.9 0 0 0-.213-.614l-2.39-2.36a12.5 12.5 0 0 0 2.565-13.545 12.46 12.46 0 0 0-4.576-5.548 12.4 12.4 0 0 0-6.873-2.088m6.637 15.525a.89.89 0 0 1-1.182.419l-6.343-3.082v-7.794a.89.89 0 0 1 .888-.89.887.887 0 0 1 .889.89v6.68l5.33 2.592a.89.89 0 0 1 .435 1.185z"/></svg>