<svg xmlns="http://www.w3.org/2000/svg" width="62" height="62" fill="none" viewBox="0 0 62 62"><rect width="62" height="62" fill="#00ae6c" rx="16"/><path fill="#fff" d="M44.039 30.375c-1.218-5.629-3.05-8.633-5.769-9.454a6 6 0 0 0-1.76-.254c-.786 0-1.472.196-2.197.404-.874.25-1.866.535-3.314.535s-2.44-.284-3.316-.535c-.726-.208-1.41-.404-2.195-.404a6.5 6.5 0 0 0-1.822.253c-2.704.817-4.535 3.82-5.77 9.452-1.33 6.059-.675 9.885 1.833 10.772.344.124.706.188 1.07.19 1.718 0 3.096-1.464 4.038-2.662 1.064-1.356 2.309-2.044 6.162-2.044 3.442 0 4.866.477 6.097 2.044.773.985 1.504 1.674 2.233 2.108.97.576 1.939.704 2.88.374 1.482-.518 2.332-1.885 2.526-4.065.147-1.672-.08-3.868-.696-6.714m-15.795-.316h-1.838v1.879a.95.95 0 0 1-.269.664.91.91 0 0 1-1.299 0 .95.95 0 0 1-.269-.664v-1.879h-1.837a.9.9 0 0 1-.65-.275.95.95 0 0 1 0-1.328.9.9 0 0 1 .65-.275h1.837v-1.879a.95.95 0 0 1 .27-.664.91.91 0 0 1 1.298 0 .95.95 0 0 1 .27.664v1.879h1.837c.243 0 .477.099.65.275a.95.95 0 0 1 0 1.328.9.9 0 0 1-.65.275m4.822.235a1.13 1.13 0 0 1-.638-.198 1.17 1.17 0 0 1-.423-.527 1.2 1.2 0 0 1 .25-1.28 1.12 1.12 0 0 1 1.251-.255c.21.09.389.24.515.434a1.19 1.19 0 0 1-.143 1.482c-.215.22-.507.344-.812.344m2.526 2.583a1.13 1.13 0 0 1-.638-.198 1.17 1.17 0 0 1-.423-.527 1.2 1.2 0 0 1 .25-1.28 1.134 1.134 0 0 1 1.767.181 1.19 1.19 0 0 1-.145 1.481c-.215.22-.507.343-.81.343m0-5.166a1.13 1.13 0 0 1-.638-.198 1.17 1.17 0 0 1-.423-.527 1.2 1.2 0 0 1 .25-1.28 1.12 1.12 0 0 1 1.251-.255c.21.09.389.24.515.434a1.19 1.19 0 0 1-.143 1.482c-.215.22-.507.344-.812.344m2.526 2.583a1.13 1.13 0 0 1-.638-.198 1.17 1.17 0 0 1-.423-.527 1.2 1.2 0 0 1 .25-1.28 1.12 1.12 0 0 1 1.251-.255c.21.09.389.24.515.434a1.19 1.19 0 0 1-.143 1.482c-.215.22-.507.344-.812.344"/></svg>