<svg xmlns="http://www.w3.org/2000/svg" width="62" height="62" fill="none" viewBox="0 0 62 62"><rect width="62" height="62" fill="#00ae6c" rx="16"/><path fill="#fff" d="M38.346 36.509h-11.46l-2.353 2.01-2.353-2.01h-4.957v1.378c0 1.756 1.213 3.186 2.712 3.214.14.868.478 1.652.986 2.266.75.907 1.843 1.408 3.075 1.408h7.577c1.232 0 2.324-.5 3.076-1.41.508-.613.845-1.397.985-2.265.796-.014 1.512-.425 2.009-1.07a3.5 3.5 0 0 0 .703-2.143zm-16.015-1.837 2.2 1.618 2.22-1.618h11.595v-.459a2.3 2.3 0 0 0-1.836-2.25c-.047-1.704-.747-3.13-2.039-4.133-1.195-.932-2.792-1.424-4.62-1.424h-4.133c-3.916 0-6.568 2.226-6.658 5.557a2.3 2.3 0 0 0-1.837 2.25v.46z"/><path fill="#fff" d="M42.886 21.814h-4.282l.513-2.047 2.56-.88-.575-1.665-3.559 1.148-.832 3.444h-8.467v1.837h1.076l.107.919h.424c2.239 0 4.229.625 5.747 1.809a7 7 0 0 1 2.619 4.316 4.134 4.134 0 0 1 1.6 5.218 5.5 5.5 0 0 1 .367 1.974c0 1.282-.437 2.504-1.229 3.44a4.6 4.6 0 0 1-1.827 1.318 6.3 6.3 0 0 1-1.272 2.133h4.328c.918 0 1.32-.46 1.435-1.32l2.09-19.804h1.067v-1.84z"/></svg>