<svg xmlns="http://www.w3.org/2000/svg" width="49" height="48" fill="none" viewBox="0 0 49 48"><g clip-path="url(#a)"><path fill="#252525" d="M25 48c13.255 0 24-10.745 24-24S38.255 0 25 0 1 10.745 1 24s10.745 24 24 24"/><path fill="#fff" d="m11.482 23.48 23.14-8.922c1.074-.388 2.012.262 1.664 1.886l.002-.002-3.94 18.562c-.292 1.316-1.074 1.636-2.168 1.016l-6-4.422-2.895 2.788c-.32.32-.59.59-1.21.59l.427-6.106 11.12-10.046c.484-.426-.108-.666-.747-.242l-13.741 8.652-5.924-1.848c-1.286-.408-1.314-1.286.271-1.906"/></g><defs><clipPath id="a"><path fill="#fff" d="M.5 0h48v48H.5z"/></clipPath></defs></svg>